# xmcd
#
# Track frame offsets: 
#        150
#        20884
#        36409
#        53959
#        72648
#        90368
#        108306
#        123194
#        143196
#        161206
#        181414
#        198936
#        215882
#        236195
#        249537
#        267464
#        285398
#        302675
#        321164
#        338272
#
# Disc length: 4749 seconds
#
# Revision: 3
# Processed by: cddbd v1.5.2PL0 Copyright (c) Steve Scherf et al.
# Submitted via: ExactAudioCopy v0.99pb5
#
DISCID=32128b14
DTITLE=Various Artist - Essential (Soul love) - CD 2
DYEAR=2010
DGENRE=Soul
TTITLE0=Aretha Franklin - A deeper lover
TTITLE1=Dionne Warwick - All the love in the world
TTITLE2=Heather Small - Proud [2000]
TTITLE3=Kelly Rowland - Stole [2002]
TTITLE4=John Legend - Save room
TTITLE5=Anthony Hamilton - Comin' from where I'm from
TTITLE6=Champaign - How 'bout us
TTITLE7=Deniece Williams - That's what friends are for
TTITLE8=Mary Mary - Love you that much
TTITLE9=Odyssey - If you're lookin' for a way out
TTITLE10=The Isley Brothers - Harvest for the world
TTITLE11=The Trammps - Hold back the night
TTITLE12=Mturne - Juicy fruit
TTITLE13=The O'Jays - Love train
TTITLE14=Five Star - Rain or shine
TTITLE15=Des'ree - You gotta be
TTITLE16=Toni Braxton - Another sad love song
TTITLE17=Regina Belle - Show me the way
TTITLE18=Rose Royce - Best love
TTITLE19=Gloria Estefan - Can't stay away from you
EXTD=Sony Music 886976452025
EXTT0=
EXTT1=
EXTT2=
EXTT3=
EXTT4=
EXTT5=
EXTT6=
EXTT7=
EXTT8=
EXTT9=
EXTT10=
EXTT11=
EXTT12=
EXTT13=
EXTT14=
EXTT15=
EXTT16=
EXTT17=
EXTT18=
EXTT19=
PLAYORDER=
